<mxfile host="app.diagrams.net" modified="2023-11-30T15:20:13.805Z" agent="Mozilla/5.0 (Windows NT 10.0; Win64; x64) AppleWebKit/537.36 (KHTML, like Gecko) Chrome/119.0.0.0 Safari/537.36" etag="KJdbrZtMibczLCNP2rik" version="22.1.5" type="device">
  <diagram id="prtHgNgQTEPvFCAcTncT" name="Page-1">
    <mxGraphModel dx="2586" dy="1241" grid="1" gridSize="10" guides="1" tooltips="1" connect="1" arrows="1" fold="1" page="1" pageScale="1" pageWidth="827" pageHeight="1169" math="0" shadow="0">
      <root>
        <mxCell id="0" />
        <mxCell id="1" parent="0" />
        <mxCell id="3b3RuMqhC3icDGO_mjxn-13" style="edgeStyle=orthogonalEdgeStyle;rounded=1;orthogonalLoop=1;jettySize=auto;html=1;exitX=1;exitY=0.5;exitDx=0;exitDy=0;entryX=0;entryY=0.5;entryDx=0;entryDy=0;labelBackgroundColor=none;fontColor=default;strokeColor=#457B9D;" parent="1" source="3b3RuMqhC3icDGO_mjxn-5" target="3b3RuMqhC3icDGO_mjxn-6" edge="1">
          <mxGeometry relative="1" as="geometry" />
        </mxCell>
        <mxCell id="3b3RuMqhC3icDGO_mjxn-5" value="" style="ellipse;whiteSpace=wrap;html=1;aspect=fixed;rounded=1;labelBackgroundColor=none;fillColor=#d5e8d4;strokeColor=#82b366;strokeWidth=7;" parent="1" vertex="1">
          <mxGeometry x="140" y="30" width="30" height="30" as="geometry" />
        </mxCell>
        <mxCell id="3b3RuMqhC3icDGO_mjxn-14" style="edgeStyle=orthogonalEdgeStyle;rounded=1;orthogonalLoop=1;jettySize=auto;html=1;exitX=1;exitY=0.5;exitDx=0;exitDy=0;entryX=0;entryY=0.5;entryDx=0;entryDy=0;labelBackgroundColor=none;fontColor=default;strokeColor=#457B9D;" parent="1" source="3b3RuMqhC3icDGO_mjxn-6" target="3b3RuMqhC3icDGO_mjxn-8" edge="1">
          <mxGeometry relative="1" as="geometry" />
        </mxCell>
        <mxCell id="3b3RuMqhC3icDGO_mjxn-6" value="Session Start" style="rounded=1;whiteSpace=wrap;html=1;labelBackgroundColor=none;fillColor=#A8DADC;strokeColor=#457B9D;fontColor=#1D3557;" parent="1" vertex="1">
          <mxGeometry x="220" y="20" width="90" height="50" as="geometry" />
        </mxCell>
        <mxCell id="3b3RuMqhC3icDGO_mjxn-50" value="Wrong" style="edgeStyle=orthogonalEdgeStyle;rounded=1;orthogonalLoop=1;jettySize=auto;html=1;exitX=0.5;exitY=0;exitDx=0;exitDy=0;entryX=0.5;entryY=1;entryDx=0;entryDy=0;labelBackgroundColor=none;fontColor=default;strokeColor=#457B9D;" parent="1" source="3b3RuMqhC3icDGO_mjxn-7" target="3b3RuMqhC3icDGO_mjxn-6" edge="1">
          <mxGeometry relative="1" as="geometry" />
        </mxCell>
        <mxCell id="3b3RuMqhC3icDGO_mjxn-7" value="" style="rhombus;whiteSpace=wrap;html=1;rounded=1;labelBackgroundColor=none;fillColor=#ffe6cc;strokeColor=#d79b00;" parent="1" vertex="1">
          <mxGeometry x="240" y="130" width="50" height="40" as="geometry" />
        </mxCell>
        <mxCell id="3b3RuMqhC3icDGO_mjxn-8" value="Log in Credentials" style="rounded=1;whiteSpace=wrap;html=1;labelBackgroundColor=none;fillColor=#A8DADC;strokeColor=#457B9D;fontColor=#1D3557;" parent="1" vertex="1">
          <mxGeometry x="380" y="20" width="90" height="50" as="geometry" />
        </mxCell>
        <mxCell id="3b3RuMqhC3icDGO_mjxn-16" value="" style="endArrow=classic;html=1;rounded=1;exitX=0.5;exitY=1;exitDx=0;exitDy=0;entryX=1;entryY=0.5;entryDx=0;entryDy=0;labelBackgroundColor=none;fontColor=default;strokeColor=#457B9D;" parent="1" source="3b3RuMqhC3icDGO_mjxn-8" target="3b3RuMqhC3icDGO_mjxn-7" edge="1">
          <mxGeometry width="50" height="50" relative="1" as="geometry">
            <mxPoint x="460" y="110" as="sourcePoint" />
            <mxPoint x="510" y="270" as="targetPoint" />
            <Array as="points">
              <mxPoint x="425" y="150" />
            </Array>
          </mxGeometry>
        </mxCell>
        <mxCell id="3b3RuMqhC3icDGO_mjxn-103" style="edgeStyle=orthogonalEdgeStyle;rounded=1;orthogonalLoop=1;jettySize=auto;html=1;exitX=0.5;exitY=1;exitDx=0;exitDy=0;entryX=0.5;entryY=0;entryDx=0;entryDy=0;fontColor=default;labelBackgroundColor=none;strokeColor=#457B9D;" parent="1" source="3b3RuMqhC3icDGO_mjxn-23" target="3b3RuMqhC3icDGO_mjxn-27" edge="1">
          <mxGeometry relative="1" as="geometry" />
        </mxCell>
        <mxCell id="3b3RuMqhC3icDGO_mjxn-23" value="Log in successful" style="rounded=1;whiteSpace=wrap;html=1;labelBackgroundColor=none;fillColor=#A8DADC;strokeColor=#457B9D;fontColor=#1D3557;" parent="1" vertex="1">
          <mxGeometry x="215" y="230" width="100" height="50" as="geometry" />
        </mxCell>
        <mxCell id="3b3RuMqhC3icDGO_mjxn-54" style="edgeStyle=orthogonalEdgeStyle;rounded=1;orthogonalLoop=1;jettySize=auto;html=1;exitX=0.25;exitY=1;exitDx=0;exitDy=0;entryX=0.5;entryY=0;entryDx=0;entryDy=0;labelBackgroundColor=none;fontColor=default;strokeColor=#457B9D;" parent="1" source="3b3RuMqhC3icDGO_mjxn-27" target="3b3RuMqhC3icDGO_mjxn-29" edge="1">
          <mxGeometry relative="1" as="geometry" />
        </mxCell>
        <mxCell id="3b3RuMqhC3icDGO_mjxn-74" style="edgeStyle=orthogonalEdgeStyle;rounded=1;hachureGap=4;orthogonalLoop=1;jettySize=auto;html=1;exitX=0.318;exitY=0.975;exitDx=0;exitDy=0;fontFamily=Architects Daughter;fontSource=https%3A%2F%2Ffonts.googleapis.com%2Fcss%3Ffamily%3DArchitects%2BDaughter;fontSize=16;exitPerimeter=0;labelBackgroundColor=none;fontColor=default;strokeColor=#457B9D;" parent="1" source="3b3RuMqhC3icDGO_mjxn-27" target="3b3RuMqhC3icDGO_mjxn-40" edge="1">
          <mxGeometry relative="1" as="geometry" />
        </mxCell>
        <mxCell id="3b3RuMqhC3icDGO_mjxn-98" style="edgeStyle=orthogonalEdgeStyle;rounded=1;hachureGap=4;orthogonalLoop=1;jettySize=auto;html=1;exitX=0.75;exitY=1;exitDx=0;exitDy=0;entryX=0.5;entryY=0;entryDx=0;entryDy=0;fontFamily=Architects Daughter;fontSource=https%3A%2F%2Ffonts.googleapis.com%2Fcss%3Ffamily%3DArchitects%2BDaughter;fontSize=16;labelBackgroundColor=none;fontColor=default;strokeColor=#457B9D;" parent="1" source="3b3RuMqhC3icDGO_mjxn-27" target="3b3RuMqhC3icDGO_mjxn-45" edge="1">
          <mxGeometry relative="1" as="geometry" />
        </mxCell>
        <mxCell id="j1AfuxxvZGjrpUZ2niF6-18" style="edgeStyle=orthogonalEdgeStyle;rounded=1;orthogonalLoop=1;jettySize=auto;html=1;exitX=0.5;exitY=1;exitDx=0;exitDy=0;entryX=0.5;entryY=0;entryDx=0;entryDy=0;labelBackgroundColor=none;strokeColor=#457B9D;fontColor=default;" parent="1" source="3b3RuMqhC3icDGO_mjxn-27" target="3b3RuMqhC3icDGO_mjxn-44" edge="1">
          <mxGeometry relative="1" as="geometry" />
        </mxCell>
        <mxCell id="3b3RuMqhC3icDGO_mjxn-27" value="" style="rounded=1;whiteSpace=wrap;html=1;labelBackgroundColor=none;fillColor=#f8cecc;strokeColor=#b85450;" parent="1" vertex="1">
          <mxGeometry x="110" y="320" width="640" height="10" as="geometry" />
        </mxCell>
        <mxCell id="3b3RuMqhC3icDGO_mjxn-31" style="edgeStyle=orthogonalEdgeStyle;rounded=1;orthogonalLoop=1;jettySize=auto;html=1;exitX=0.5;exitY=1;exitDx=0;exitDy=0;labelBackgroundColor=none;fontColor=default;strokeColor=#457B9D;" parent="1" source="3b3RuMqhC3icDGO_mjxn-29" target="3b3RuMqhC3icDGO_mjxn-30" edge="1">
          <mxGeometry relative="1" as="geometry" />
        </mxCell>
        <mxCell id="3b3RuMqhC3icDGO_mjxn-29" value="Payments" style="rounded=1;whiteSpace=wrap;html=1;labelBackgroundColor=none;fillColor=#A8DADC;strokeColor=#457B9D;fontColor=#1D3557;" parent="1" vertex="1">
          <mxGeometry x="110" y="387" width="80" height="35" as="geometry" />
        </mxCell>
        <mxCell id="3b3RuMqhC3icDGO_mjxn-56" style="edgeStyle=orthogonalEdgeStyle;rounded=1;orthogonalLoop=1;jettySize=auto;html=1;exitX=0.5;exitY=1;exitDx=0;exitDy=0;entryX=0.5;entryY=0;entryDx=0;entryDy=0;labelBackgroundColor=none;fontColor=default;strokeColor=#457B9D;" parent="1" source="3b3RuMqhC3icDGO_mjxn-30" target="3b3RuMqhC3icDGO_mjxn-33" edge="1">
          <mxGeometry relative="1" as="geometry" />
        </mxCell>
        <mxCell id="3b3RuMqhC3icDGO_mjxn-60" style="edgeStyle=orthogonalEdgeStyle;rounded=1;orthogonalLoop=1;jettySize=auto;html=1;exitX=0;exitY=0.5;exitDx=0;exitDy=0;entryX=0.5;entryY=0;entryDx=0;entryDy=0;labelBackgroundColor=none;fontColor=default;strokeColor=#457B9D;" parent="1" source="3b3RuMqhC3icDGO_mjxn-30" target="3b3RuMqhC3icDGO_mjxn-32" edge="1">
          <mxGeometry relative="1" as="geometry" />
        </mxCell>
        <mxCell id="3b3RuMqhC3icDGO_mjxn-30" value="" style="rhombus;whiteSpace=wrap;html=1;rounded=1;labelBackgroundColor=none;fillColor=#ffe6cc;strokeColor=#d79b00;" parent="1" vertex="1">
          <mxGeometry x="120" y="462" width="60" height="40" as="geometry" />
        </mxCell>
        <mxCell id="3b3RuMqhC3icDGO_mjxn-67" style="edgeStyle=orthogonalEdgeStyle;rounded=1;hachureGap=4;orthogonalLoop=1;jettySize=auto;html=1;exitX=0.5;exitY=1;exitDx=0;exitDy=0;entryX=0.5;entryY=0;entryDx=0;entryDy=0;fontFamily=Architects Daughter;fontSource=https%3A%2F%2Ffonts.googleapis.com%2Fcss%3Ffamily%3DArchitects%2BDaughter;fontSize=16;labelBackgroundColor=none;fontColor=default;strokeColor=#457B9D;" parent="1" source="3b3RuMqhC3icDGO_mjxn-32" target="3b3RuMqhC3icDGO_mjxn-64" edge="1">
          <mxGeometry relative="1" as="geometry" />
        </mxCell>
        <mxCell id="3b3RuMqhC3icDGO_mjxn-32" value="Onilne Payments through App" style="rounded=1;whiteSpace=wrap;html=1;labelBackgroundColor=none;fillColor=#A8DADC;strokeColor=#457B9D;fontColor=#1D3557;" parent="1" vertex="1">
          <mxGeometry x="50" y="550" width="80" height="50" as="geometry" />
        </mxCell>
        <mxCell id="3b3RuMqhC3icDGO_mjxn-104" style="edgeStyle=orthogonalEdgeStyle;rounded=1;orthogonalLoop=1;jettySize=auto;html=1;exitX=0.5;exitY=1;exitDx=0;exitDy=0;entryX=0.5;entryY=0;entryDx=0;entryDy=0;fontColor=default;labelBackgroundColor=none;strokeColor=#457B9D;" parent="1" source="3b3RuMqhC3icDGO_mjxn-33" target="3b3RuMqhC3icDGO_mjxn-64" edge="1">
          <mxGeometry relative="1" as="geometry" />
        </mxCell>
        <mxCell id="3b3RuMqhC3icDGO_mjxn-33" value="Online card Payments" style="rounded=1;whiteSpace=wrap;html=1;labelBackgroundColor=none;fillColor=#A8DADC;strokeColor=#457B9D;fontColor=#1D3557;" parent="1" vertex="1">
          <mxGeometry x="180" y="550" width="70" height="50" as="geometry" />
        </mxCell>
        <mxCell id="3b3RuMqhC3icDGO_mjxn-61" style="edgeStyle=orthogonalEdgeStyle;rounded=1;orthogonalLoop=1;jettySize=auto;html=1;exitX=0.5;exitY=1;exitDx=0;exitDy=0;entryX=0.5;entryY=0;entryDx=0;entryDy=0;labelBackgroundColor=none;fontColor=default;strokeColor=#457B9D;" parent="1" source="3b3RuMqhC3icDGO_mjxn-35" target="3b3RuMqhC3icDGO_mjxn-38" edge="1">
          <mxGeometry relative="1" as="geometry" />
        </mxCell>
        <mxCell id="3b3RuMqhC3icDGO_mjxn-35" value="cash payments" style="rounded=1;whiteSpace=wrap;html=1;labelBackgroundColor=none;fillColor=#A8DADC;strokeColor=#457B9D;fontColor=#1D3557;" parent="1" vertex="1">
          <mxGeometry x="300" y="550" width="70" height="50" as="geometry" />
        </mxCell>
        <mxCell id="3b3RuMqhC3icDGO_mjxn-37" value="Log of transaction details" style="rounded=1;whiteSpace=wrap;html=1;labelBackgroundColor=none;fillColor=#A8DADC;strokeColor=#457B9D;fontColor=#1D3557;" parent="1" vertex="1">
          <mxGeometry x="110" y="740" width="70" height="50" as="geometry" />
        </mxCell>
        <mxCell id="3b3RuMqhC3icDGO_mjxn-38" value="Manual entry" style="rounded=1;whiteSpace=wrap;html=1;labelBackgroundColor=none;fillColor=#A8DADC;strokeColor=#457B9D;fontColor=#1D3557;" parent="1" vertex="1">
          <mxGeometry x="250" y="650" width="70" height="50" as="geometry" />
        </mxCell>
        <mxCell id="3b3RuMqhC3icDGO_mjxn-91" style="edgeStyle=orthogonalEdgeStyle;rounded=1;hachureGap=4;orthogonalLoop=1;jettySize=auto;html=1;exitX=0.5;exitY=1;exitDx=0;exitDy=0;entryX=0.5;entryY=0;entryDx=0;entryDy=0;fontFamily=Architects Daughter;fontSource=https%3A%2F%2Ffonts.googleapis.com%2Fcss%3Ffamily%3DArchitects%2BDaughter;fontSize=16;labelBackgroundColor=none;fontColor=default;strokeColor=#457B9D;" parent="1" source="3b3RuMqhC3icDGO_mjxn-39" target="3b3RuMqhC3icDGO_mjxn-46" edge="1">
          <mxGeometry relative="1" as="geometry" />
        </mxCell>
        <mxCell id="3b3RuMqhC3icDGO_mjxn-39" value="" style="rounded=1;whiteSpace=wrap;html=1;labelBackgroundColor=none;fillColor=#f8cecc;strokeColor=#b85450;" parent="1" vertex="1">
          <mxGeometry x="110" y="830" width="550" height="10" as="geometry" />
        </mxCell>
        <mxCell id="3b3RuMqhC3icDGO_mjxn-75" style="edgeStyle=orthogonalEdgeStyle;rounded=1;hachureGap=4;orthogonalLoop=1;jettySize=auto;html=1;exitX=0.5;exitY=1;exitDx=0;exitDy=0;entryX=0.5;entryY=0;entryDx=0;entryDy=0;fontFamily=Architects Daughter;fontSource=https%3A%2F%2Ffonts.googleapis.com%2Fcss%3Ffamily%3DArchitects%2BDaughter;fontSize=16;labelBackgroundColor=none;fontColor=default;strokeColor=#457B9D;" parent="1" source="3b3RuMqhC3icDGO_mjxn-40" target="3b3RuMqhC3icDGO_mjxn-41" edge="1">
          <mxGeometry relative="1" as="geometry" />
        </mxCell>
        <mxCell id="3b3RuMqhC3icDGO_mjxn-40" value="Investment" style="rounded=1;whiteSpace=wrap;html=1;labelBackgroundColor=none;fillColor=#A8DADC;strokeColor=#457B9D;fontColor=#1D3557;" parent="1" vertex="1">
          <mxGeometry x="325" y="400" width="80" height="35" as="geometry" />
        </mxCell>
        <mxCell id="3b3RuMqhC3icDGO_mjxn-80" style="edgeStyle=orthogonalEdgeStyle;rounded=1;hachureGap=4;orthogonalLoop=1;jettySize=auto;html=1;exitX=0.5;exitY=1;exitDx=0;exitDy=0;entryX=0.5;entryY=0;entryDx=0;entryDy=0;fontFamily=Architects Daughter;fontSource=https%3A%2F%2Ffonts.googleapis.com%2Fcss%3Ffamily%3DArchitects%2BDaughter;fontSize=16;labelBackgroundColor=none;fontColor=default;strokeColor=#457B9D;" parent="1" source="j1AfuxxvZGjrpUZ2niF6-11" edge="1">
          <mxGeometry relative="1" as="geometry">
            <mxPoint x="445" y="585" as="targetPoint" />
          </mxGeometry>
        </mxCell>
        <mxCell id="3b3RuMqhC3icDGO_mjxn-41" value="Stock/Bank Server" style="rounded=1;whiteSpace=wrap;html=1;labelBackgroundColor=none;fillColor=#A8DADC;strokeColor=#457B9D;fontColor=#1D3557;" parent="1" vertex="1">
          <mxGeometry x="405" y="480" width="80" height="35" as="geometry" />
        </mxCell>
        <mxCell id="3b3RuMqhC3icDGO_mjxn-44" value="set Financial Goals&amp;nbsp;" style="rounded=1;whiteSpace=wrap;html=1;labelBackgroundColor=none;fillColor=#A8DADC;strokeColor=#457B9D;fontColor=#1D3557;" parent="1" vertex="1">
          <mxGeometry x="500" y="410" width="80" height="35" as="geometry" />
        </mxCell>
        <mxCell id="3b3RuMqhC3icDGO_mjxn-95" style="edgeStyle=orthogonalEdgeStyle;rounded=1;hachureGap=4;orthogonalLoop=1;jettySize=auto;html=1;exitX=0.5;exitY=1;exitDx=0;exitDy=0;entryX=0.5;entryY=0;entryDx=0;entryDy=0;fontFamily=Architects Daughter;fontSource=https%3A%2F%2Ffonts.googleapis.com%2Fcss%3Ffamily%3DArchitects%2BDaughter;fontSize=16;labelBackgroundColor=none;fontColor=default;strokeColor=#457B9D;" parent="1" source="3b3RuMqhC3icDGO_mjxn-45" target="3b3RuMqhC3icDGO_mjxn-94" edge="1">
          <mxGeometry relative="1" as="geometry" />
        </mxCell>
        <mxCell id="3b3RuMqhC3icDGO_mjxn-45" value="Offers" style="rounded=1;whiteSpace=wrap;html=1;labelBackgroundColor=none;fillColor=#A8DADC;strokeColor=#457B9D;fontColor=#1D3557;" parent="1" vertex="1">
          <mxGeometry x="600" y="410" width="80" height="35" as="geometry" />
        </mxCell>
        <mxCell id="3b3RuMqhC3icDGO_mjxn-109" style="edgeStyle=orthogonalEdgeStyle;rounded=1;orthogonalLoop=1;jettySize=auto;html=1;exitX=0.5;exitY=1;exitDx=0;exitDy=0;fontColor=default;labelBackgroundColor=none;strokeColor=#457B9D;" parent="1" source="3b3RuMqhC3icDGO_mjxn-46" target="3b3RuMqhC3icDGO_mjxn-108" edge="1">
          <mxGeometry relative="1" as="geometry" />
        </mxCell>
        <mxCell id="3b3RuMqhC3icDGO_mjxn-46" value="update reports" style="rounded=1;whiteSpace=wrap;html=1;labelBackgroundColor=none;fillColor=#A8DADC;strokeColor=#457B9D;fontColor=#1D3557;" parent="1" vertex="1">
          <mxGeometry x="170" y="900" width="90" height="50" as="geometry" />
        </mxCell>
        <mxCell id="3b3RuMqhC3icDGO_mjxn-116" style="edgeStyle=orthogonalEdgeStyle;rounded=1;orthogonalLoop=1;jettySize=auto;html=1;exitX=0.5;exitY=1;exitDx=0;exitDy=0;entryX=1;entryY=0.5;entryDx=0;entryDy=0;fontColor=default;labelBackgroundColor=none;strokeColor=#457B9D;" parent="1" source="3b3RuMqhC3icDGO_mjxn-47" target="3b3RuMqhC3icDGO_mjxn-114" edge="1">
          <mxGeometry relative="1" as="geometry" />
        </mxCell>
        <mxCell id="3b3RuMqhC3icDGO_mjxn-47" value="Credit Score" style="rounded=1;whiteSpace=wrap;html=1;labelBackgroundColor=none;fillColor=#A8DADC;strokeColor=#457B9D;fontColor=#1D3557;" parent="1" vertex="1">
          <mxGeometry x="405" y="900" width="90" height="50" as="geometry" />
        </mxCell>
        <mxCell id="3b3RuMqhC3icDGO_mjxn-51" style="edgeStyle=orthogonalEdgeStyle;rounded=1;orthogonalLoop=1;jettySize=auto;html=1;exitX=0.5;exitY=1;exitDx=0;exitDy=0;labelBackgroundColor=none;fontColor=default;entryX=0.5;entryY=0;entryDx=0;entryDy=0;strokeColor=#457B9D;" parent="1" source="3b3RuMqhC3icDGO_mjxn-7" target="3b3RuMqhC3icDGO_mjxn-23" edge="1">
          <mxGeometry relative="1" as="geometry">
            <mxPoint x="270" y="230" as="targetPoint" />
          </mxGeometry>
        </mxCell>
        <mxCell id="3b3RuMqhC3icDGO_mjxn-52" value="Right" style="edgeLabel;html=1;align=center;verticalAlign=middle;resizable=0;points=[];rounded=1;labelBackgroundColor=none;fontColor=#1D3557;" parent="3b3RuMqhC3icDGO_mjxn-51" vertex="1" connectable="0">
          <mxGeometry x="-0.1331" relative="1" as="geometry">
            <mxPoint as="offset" />
          </mxGeometry>
        </mxCell>
        <mxCell id="3b3RuMqhC3icDGO_mjxn-59" style="edgeStyle=orthogonalEdgeStyle;rounded=1;orthogonalLoop=1;jettySize=auto;html=1;exitX=1;exitY=0.5;exitDx=0;exitDy=0;entryX=0.369;entryY=-0.025;entryDx=0;entryDy=0;entryPerimeter=0;labelBackgroundColor=none;fontColor=default;strokeColor=#457B9D;" parent="1" source="3b3RuMqhC3icDGO_mjxn-30" target="3b3RuMqhC3icDGO_mjxn-35" edge="1">
          <mxGeometry relative="1" as="geometry" />
        </mxCell>
        <mxCell id="3b3RuMqhC3icDGO_mjxn-70" style="edgeStyle=orthogonalEdgeStyle;rounded=1;hachureGap=4;orthogonalLoop=1;jettySize=auto;html=1;exitX=0.5;exitY=1;exitDx=0;exitDy=0;entryX=0.5;entryY=0;entryDx=0;entryDy=0;fontFamily=Architects Daughter;fontSource=https%3A%2F%2Ffonts.googleapis.com%2Fcss%3Ffamily%3DArchitects%2BDaughter;fontSize=16;labelBackgroundColor=none;fontColor=default;strokeColor=#457B9D;" parent="1" source="3b3RuMqhC3icDGO_mjxn-64" target="3b3RuMqhC3icDGO_mjxn-37" edge="1">
          <mxGeometry relative="1" as="geometry" />
        </mxCell>
        <mxCell id="j1AfuxxvZGjrpUZ2niF6-4" value="success" style="edgeLabel;html=1;align=center;verticalAlign=middle;resizable=0;points=[];rounded=1;labelBackgroundColor=none;fontColor=#1D3557;" parent="3b3RuMqhC3icDGO_mjxn-70" vertex="1" connectable="0">
          <mxGeometry x="-0.4" y="-1" relative="1" as="geometry">
            <mxPoint as="offset" />
          </mxGeometry>
        </mxCell>
        <mxCell id="j1AfuxxvZGjrpUZ2niF6-5" style="edgeStyle=orthogonalEdgeStyle;rounded=1;orthogonalLoop=1;jettySize=auto;html=1;exitX=0;exitY=0.5;exitDx=0;exitDy=0;entryX=0;entryY=0.25;entryDx=0;entryDy=0;labelBackgroundColor=none;strokeColor=#457B9D;fontColor=default;" parent="1" source="3b3RuMqhC3icDGO_mjxn-64" target="3b3RuMqhC3icDGO_mjxn-29" edge="1">
          <mxGeometry relative="1" as="geometry">
            <Array as="points">
              <mxPoint x="20" y="680" />
              <mxPoint x="20" y="396" />
            </Array>
          </mxGeometry>
        </mxCell>
        <mxCell id="j1AfuxxvZGjrpUZ2niF6-7" value="&lt;font style=&quot;font-size: 9px;&quot;&gt;payment incomplete&lt;/font&gt;" style="edgeLabel;html=1;align=center;verticalAlign=middle;resizable=0;points=[];rounded=1;labelBackgroundColor=none;fontColor=#1D3557;" parent="j1AfuxxvZGjrpUZ2niF6-5" vertex="1" connectable="0">
          <mxGeometry x="-0.8082" y="-1" relative="1" as="geometry">
            <mxPoint y="-9" as="offset" />
          </mxGeometry>
        </mxCell>
        <mxCell id="3b3RuMqhC3icDGO_mjxn-64" value="" style="rhombus;whiteSpace=wrap;html=1;hachureGap=4;fontFamily=Architects Daughter;fontSource=https%3A%2F%2Ffonts.googleapis.com%2Fcss%3Ffamily%3DArchitects%2BDaughter;fontSize=20;rounded=1;labelBackgroundColor=none;fillColor=#ffe6cc;strokeColor=#d79b00;" parent="1" vertex="1">
          <mxGeometry x="115" y="660" width="60" height="40" as="geometry" />
        </mxCell>
        <mxCell id="3b3RuMqhC3icDGO_mjxn-100" style="edgeStyle=orthogonalEdgeStyle;rounded=1;hachureGap=4;orthogonalLoop=1;jettySize=auto;html=1;exitX=0.5;exitY=1;exitDx=0;exitDy=0;entryX=0.5;entryY=0;entryDx=0;entryDy=0;fontFamily=Architects Daughter;fontSource=https%3A%2F%2Ffonts.googleapis.com%2Fcss%3Ffamily%3DArchitects%2BDaughter;fontSize=16;labelBackgroundColor=none;fontColor=default;strokeColor=#457B9D;" parent="1" source="3b3RuMqhC3icDGO_mjxn-76" target="3b3RuMqhC3icDGO_mjxn-39" edge="1">
          <mxGeometry relative="1" as="geometry" />
        </mxCell>
        <mxCell id="3b3RuMqhC3icDGO_mjxn-76" value="Log of transaction details" style="rounded=1;whiteSpace=wrap;html=1;labelBackgroundColor=none;fillColor=#A8DADC;strokeColor=#457B9D;fontColor=#1D3557;" parent="1" vertex="1">
          <mxGeometry x="390" y="700" width="70" height="50" as="geometry" />
        </mxCell>
        <mxCell id="3b3RuMqhC3icDGO_mjxn-81" style="edgeStyle=orthogonalEdgeStyle;rounded=1;hachureGap=4;orthogonalLoop=1;jettySize=auto;html=1;exitX=0.5;exitY=1;exitDx=0;exitDy=0;entryX=0.5;entryY=0;entryDx=0;entryDy=0;fontFamily=Architects Daughter;fontSource=https%3A%2F%2Ffonts.googleapis.com%2Fcss%3Ffamily%3DArchitects%2BDaughter;fontSize=16;labelBackgroundColor=none;fontColor=default;strokeColor=#457B9D;" parent="1" source="j1AfuxxvZGjrpUZ2niF6-11" target="3b3RuMqhC3icDGO_mjxn-76" edge="1">
          <mxGeometry relative="1" as="geometry">
            <mxPoint x="445" y="627.5" as="sourcePoint" />
          </mxGeometry>
        </mxCell>
        <mxCell id="j1AfuxxvZGjrpUZ2niF6-13" value="successful transaction" style="edgeLabel;html=1;align=center;verticalAlign=middle;resizable=0;points=[];rounded=1;labelBackgroundColor=none;fontColor=#1D3557;" parent="3b3RuMqhC3icDGO_mjxn-81" vertex="1" connectable="0">
          <mxGeometry x="-0.5126" y="1" relative="1" as="geometry">
            <mxPoint as="offset" />
          </mxGeometry>
        </mxCell>
        <mxCell id="3b3RuMqhC3icDGO_mjxn-96" style="edgeStyle=orthogonalEdgeStyle;rounded=1;hachureGap=4;orthogonalLoop=1;jettySize=auto;html=1;exitX=0.5;exitY=1;exitDx=0;exitDy=0;fontFamily=Architects Daughter;fontSource=https%3A%2F%2Ffonts.googleapis.com%2Fcss%3Ffamily%3DArchitects%2BDaughter;fontSize=16;entryX=0.814;entryY=-0.425;entryDx=0;entryDy=0;entryPerimeter=0;labelBackgroundColor=none;fontColor=default;strokeColor=#457B9D;" parent="1" source="3b3RuMqhC3icDGO_mjxn-94" target="3b3RuMqhC3icDGO_mjxn-39" edge="1">
          <mxGeometry relative="1" as="geometry">
            <mxPoint x="640" y="640" as="targetPoint" />
          </mxGeometry>
        </mxCell>
        <mxCell id="j1AfuxxvZGjrpUZ2niF6-8" value="offer accepted" style="edgeLabel;html=1;align=center;verticalAlign=middle;resizable=0;points=[];rounded=1;labelBackgroundColor=none;fontColor=#1D3557;" parent="3b3RuMqhC3icDGO_mjxn-96" vertex="1" connectable="0">
          <mxGeometry x="-0.609" y="-1" relative="1" as="geometry">
            <mxPoint as="offset" />
          </mxGeometry>
        </mxCell>
        <mxCell id="3b3RuMqhC3icDGO_mjxn-102" style="edgeStyle=orthogonalEdgeStyle;rounded=1;hachureGap=4;orthogonalLoop=1;jettySize=auto;html=1;exitX=1;exitY=0.5;exitDx=0;exitDy=0;entryX=1;entryY=0.25;entryDx=0;entryDy=0;fontFamily=Architects Daughter;fontSource=https%3A%2F%2Ffonts.googleapis.com%2Fcss%3Ffamily%3DArchitects%2BDaughter;fontSize=16;labelBackgroundColor=none;fontColor=default;strokeColor=#457B9D;" parent="1" source="3b3RuMqhC3icDGO_mjxn-94" target="3b3RuMqhC3icDGO_mjxn-45" edge="1">
          <mxGeometry relative="1" as="geometry">
            <Array as="points">
              <mxPoint x="710" y="528" />
              <mxPoint x="710" y="419" />
            </Array>
          </mxGeometry>
        </mxCell>
        <mxCell id="j1AfuxxvZGjrpUZ2niF6-9" value="no actiion" style="edgeLabel;html=1;align=center;verticalAlign=middle;resizable=0;points=[];rounded=1;labelBackgroundColor=none;fontColor=#1D3557;" parent="3b3RuMqhC3icDGO_mjxn-102" vertex="1" connectable="0">
          <mxGeometry x="0.031" y="1" relative="1" as="geometry">
            <mxPoint as="offset" />
          </mxGeometry>
        </mxCell>
        <mxCell id="3b3RuMqhC3icDGO_mjxn-94" value="" style="rhombus;whiteSpace=wrap;html=1;hachureGap=4;fontFamily=Architects Daughter;fontSource=https%3A%2F%2Ffonts.googleapis.com%2Fcss%3Ffamily%3DArchitects%2BDaughter;fontSize=20;rounded=1;labelBackgroundColor=none;fillColor=#ffe6cc;strokeColor=#d79b00;" parent="1" vertex="1">
          <mxGeometry x="610" y="505" width="60" height="45" as="geometry" />
        </mxCell>
        <mxCell id="3b3RuMqhC3icDGO_mjxn-99" style="edgeStyle=orthogonalEdgeStyle;rounded=1;hachureGap=4;orthogonalLoop=1;jettySize=auto;html=1;exitX=0.5;exitY=1;exitDx=0;exitDy=0;entryX=0.312;entryY=-0.325;entryDx=0;entryDy=0;entryPerimeter=0;fontFamily=Architects Daughter;fontSource=https%3A%2F%2Ffonts.googleapis.com%2Fcss%3Ffamily%3DArchitects%2BDaughter;fontSize=16;labelBackgroundColor=none;fontColor=default;strokeColor=#457B9D;" parent="1" source="3b3RuMqhC3icDGO_mjxn-38" target="3b3RuMqhC3icDGO_mjxn-39" edge="1">
          <mxGeometry relative="1" as="geometry">
            <Array as="points">
              <mxPoint x="282" y="700" />
            </Array>
          </mxGeometry>
        </mxCell>
        <mxCell id="3b3RuMqhC3icDGO_mjxn-101" style="edgeStyle=orthogonalEdgeStyle;rounded=1;hachureGap=4;orthogonalLoop=1;jettySize=auto;html=1;exitX=0.5;exitY=1;exitDx=0;exitDy=0;fontFamily=Architects Daughter;fontSource=https%3A%2F%2Ffonts.googleapis.com%2Fcss%3Ffamily%3DArchitects%2BDaughter;fontSize=16;labelBackgroundColor=none;fontColor=default;strokeColor=#457B9D;" parent="1" source="3b3RuMqhC3icDGO_mjxn-44" edge="1">
          <mxGeometry relative="1" as="geometry">
            <mxPoint x="530" y="830" as="targetPoint" />
            <Array as="points">
              <mxPoint x="540" y="480" />
              <mxPoint x="560" y="480" />
              <mxPoint x="560" y="638" />
              <mxPoint x="530" y="638" />
              <mxPoint x="530" y="828" />
            </Array>
          </mxGeometry>
        </mxCell>
        <mxCell id="3b3RuMqhC3icDGO_mjxn-107" style="edgeStyle=orthogonalEdgeStyle;rounded=1;orthogonalLoop=1;jettySize=auto;html=1;exitX=0.5;exitY=1;exitDx=0;exitDy=0;entryX=1;entryY=0.5;entryDx=0;entryDy=0;fontColor=default;labelBackgroundColor=none;strokeColor=#457B9D;" parent="1" source="3b3RuMqhC3icDGO_mjxn-106" target="3b3RuMqhC3icDGO_mjxn-47" edge="1">
          <mxGeometry relative="1" as="geometry" />
        </mxCell>
        <mxCell id="3b3RuMqhC3icDGO_mjxn-106" value="generate Credit Score" style="rounded=1;whiteSpace=wrap;html=1;labelBackgroundColor=none;fillColor=#A8DADC;strokeColor=#457B9D;fontColor=#1D3557;" parent="1" vertex="1">
          <mxGeometry x="700" y="540" width="80" height="50" as="geometry" />
        </mxCell>
        <mxCell id="3b3RuMqhC3icDGO_mjxn-112" style="edgeStyle=orthogonalEdgeStyle;rounded=1;orthogonalLoop=1;jettySize=auto;html=1;exitX=1;exitY=0.5;exitDx=0;exitDy=0;entryX=0;entryY=0.5;entryDx=0;entryDy=0;fontColor=default;labelBackgroundColor=none;strokeColor=#457B9D;" parent="1" source="3b3RuMqhC3icDGO_mjxn-108" target="3b3RuMqhC3icDGO_mjxn-111" edge="1">
          <mxGeometry relative="1" as="geometry" />
        </mxCell>
        <mxCell id="3b3RuMqhC3icDGO_mjxn-113" style="edgeStyle=orthogonalEdgeStyle;rounded=1;orthogonalLoop=1;jettySize=auto;html=1;exitX=0.5;exitY=1;exitDx=0;exitDy=0;fontColor=default;labelBackgroundColor=none;strokeColor=#457B9D;" parent="1" source="3b3RuMqhC3icDGO_mjxn-108" target="3b3RuMqhC3icDGO_mjxn-114" edge="1">
          <mxGeometry relative="1" as="geometry">
            <mxPoint x="215" y="1110" as="targetPoint" />
          </mxGeometry>
        </mxCell>
        <mxCell id="j1AfuxxvZGjrpUZ2niF6-20" value="Exit" style="edgeLabel;html=1;align=center;verticalAlign=middle;resizable=0;points=[];fontColor=#1D3557;" parent="3b3RuMqhC3icDGO_mjxn-113" vertex="1" connectable="0">
          <mxGeometry x="-0.075" relative="1" as="geometry">
            <mxPoint as="offset" />
          </mxGeometry>
        </mxCell>
        <mxCell id="3b3RuMqhC3icDGO_mjxn-108" value="" style="rhombus;whiteSpace=wrap;html=1;labelBackgroundColor=none;fillColor=#ffe6cc;strokeColor=#d79b00;rounded=1;" parent="1" vertex="1">
          <mxGeometry x="185" y="1000" width="60" height="40" as="geometry" />
        </mxCell>
        <mxCell id="3b3RuMqhC3icDGO_mjxn-115" style="edgeStyle=orthogonalEdgeStyle;rounded=1;orthogonalLoop=1;jettySize=auto;html=1;exitX=0.5;exitY=1;exitDx=0;exitDy=0;entryX=1;entryY=0;entryDx=0;entryDy=0;fontColor=default;labelBackgroundColor=none;strokeColor=#457B9D;" parent="1" source="3b3RuMqhC3icDGO_mjxn-111" target="3b3RuMqhC3icDGO_mjxn-114" edge="1">
          <mxGeometry relative="1" as="geometry">
            <Array as="points">
              <mxPoint x="345" y="1110" />
              <mxPoint x="270" y="1110" />
              <mxPoint x="270" y="1124" />
            </Array>
          </mxGeometry>
        </mxCell>
        <mxCell id="3b3RuMqhC3icDGO_mjxn-111" value="Generate report" style="rounded=1;whiteSpace=wrap;html=1;labelBackgroundColor=none;fillColor=#A8DADC;strokeColor=#457B9D;fontColor=#1D3557;" parent="1" vertex="1">
          <mxGeometry x="300" y="995" width="90" height="50" as="geometry" />
        </mxCell>
        <mxCell id="3b3RuMqhC3icDGO_mjxn-114" value="" style="ellipse;whiteSpace=wrap;html=1;aspect=fixed;labelBackgroundColor=none;fillColor=#d5e8d4;strokeColor=#143602;strokeWidth=7;rounded=1;" parent="1" vertex="1">
          <mxGeometry x="200" y="1120" width="30" height="30" as="geometry" />
        </mxCell>
        <mxCell id="3b3RuMqhC3icDGO_mjxn-117" style="edgeStyle=orthogonalEdgeStyle;rounded=1;orthogonalLoop=1;jettySize=auto;html=1;exitX=0.5;exitY=1;exitDx=0;exitDy=0;entryX=0.063;entryY=0.075;entryDx=0;entryDy=0;entryPerimeter=0;fontColor=default;labelBackgroundColor=none;strokeColor=#457B9D;" parent="1" source="3b3RuMqhC3icDGO_mjxn-37" target="3b3RuMqhC3icDGO_mjxn-39" edge="1">
          <mxGeometry relative="1" as="geometry" />
        </mxCell>
        <mxCell id="j1AfuxxvZGjrpUZ2niF6-12" value="" style="edgeStyle=orthogonalEdgeStyle;rounded=1;hachureGap=4;orthogonalLoop=1;jettySize=auto;html=1;exitX=0.5;exitY=1;exitDx=0;exitDy=0;entryX=0.5;entryY=0;entryDx=0;entryDy=0;fontFamily=Architects Daughter;fontSource=https%3A%2F%2Ffonts.googleapis.com%2Fcss%3Ffamily%3DArchitects%2BDaughter;fontSize=16;labelBackgroundColor=none;fontColor=default;strokeColor=#457B9D;" parent="1" source="3b3RuMqhC3icDGO_mjxn-41" target="j1AfuxxvZGjrpUZ2niF6-11" edge="1">
          <mxGeometry relative="1" as="geometry">
            <mxPoint x="445" y="515" as="sourcePoint" />
            <mxPoint x="445" y="585" as="targetPoint" />
          </mxGeometry>
        </mxCell>
        <mxCell id="j1AfuxxvZGjrpUZ2niF6-14" style="edgeStyle=orthogonalEdgeStyle;rounded=1;orthogonalLoop=1;jettySize=auto;html=1;exitX=1;exitY=0.5;exitDx=0;exitDy=0;entryX=1;entryY=0.5;entryDx=0;entryDy=0;labelBackgroundColor=none;strokeColor=#457B9D;fontColor=default;" parent="1" source="j1AfuxxvZGjrpUZ2niF6-11" target="3b3RuMqhC3icDGO_mjxn-40" edge="1">
          <mxGeometry relative="1" as="geometry">
            <mxPoint x="460" y="420" as="targetPoint" />
            <Array as="points">
              <mxPoint x="494" y="570" />
              <mxPoint x="494" y="460" />
              <mxPoint x="474" y="460" />
              <mxPoint x="474" y="418" />
            </Array>
          </mxGeometry>
        </mxCell>
        <mxCell id="j1AfuxxvZGjrpUZ2niF6-15" value="no action" style="edgeLabel;html=1;align=center;verticalAlign=middle;resizable=0;points=[];rounded=1;labelBackgroundColor=none;fontColor=#1D3557;" parent="j1AfuxxvZGjrpUZ2niF6-14" vertex="1" connectable="0">
          <mxGeometry x="-0.5829" relative="1" as="geometry">
            <mxPoint as="offset" />
          </mxGeometry>
        </mxCell>
        <mxCell id="j1AfuxxvZGjrpUZ2niF6-11" value="" style="rhombus;whiteSpace=wrap;html=1;rounded=1;labelBackgroundColor=none;fillColor=#ffe6cc;strokeColor=#d79b00;" parent="1" vertex="1">
          <mxGeometry x="414" y="550" width="60" height="40" as="geometry" />
        </mxCell>
        <mxCell id="j1AfuxxvZGjrpUZ2niF6-19" style="edgeStyle=orthogonalEdgeStyle;rounded=1;hachureGap=4;orthogonalLoop=1;jettySize=auto;html=1;exitX=0.878;exitY=1.475;exitDx=0;exitDy=0;entryX=0.5;entryY=0;entryDx=0;entryDy=0;fontFamily=Architects Daughter;fontSource=https%3A%2F%2Ffonts.googleapis.com%2Fcss%3Ffamily%3DArchitects%2BDaughter;fontSize=16;labelBackgroundColor=none;fontColor=default;strokeColor=#457B9D;exitPerimeter=0;" parent="1" source="3b3RuMqhC3icDGO_mjxn-27" target="3b3RuMqhC3icDGO_mjxn-106" edge="1">
          <mxGeometry relative="1" as="geometry">
            <mxPoint x="670" y="365" as="sourcePoint" />
            <mxPoint x="720" y="445" as="targetPoint" />
            <Array as="points">
              <mxPoint x="672" y="380" />
              <mxPoint x="730" y="380" />
              <mxPoint x="730" y="435" />
              <mxPoint x="740" y="435" />
            </Array>
          </mxGeometry>
        </mxCell>
        <mxCell id="j1AfuxxvZGjrpUZ2niF6-21" value="Exit" style="edgeLabel;html=1;align=center;verticalAlign=middle;resizable=0;points=[];fontColor=#1D3557;" parent="1" vertex="1" connectable="0">
          <mxGeometry x="290" y="1087" as="geometry">
            <mxPoint x="48" y="-9" as="offset" />
          </mxGeometry>
        </mxCell>
        <mxCell id="j1AfuxxvZGjrpUZ2niF6-22" value="Exit" style="edgeLabel;html=1;align=center;verticalAlign=middle;resizable=0;points=[];fontColor=#1D3557;" parent="1" vertex="1" connectable="0">
          <mxGeometry x="390" y="1087" as="geometry">
            <mxPoint x="48" y="-9" as="offset" />
          </mxGeometry>
        </mxCell>
        <mxCell id="j1AfuxxvZGjrpUZ2niF6-23" value="Activity Diagram" style="text;html=1;align=center;verticalAlign=middle;resizable=0;points=[];autosize=1;strokeColor=none;fillColor=none;fontColor=#1D3557;fontStyle=1;fontSize=17;" parent="1" vertex="1">
          <mxGeometry x="580" y="20" width="160" height="30" as="geometry" />
        </mxCell>
      </root>
    </mxGraphModel>
  </diagram>
</mxfile>
